<?xml version="1.0" encoding="UTF-8"?>
<svg id="Layer_1" data-name="Layer 1" xmlns="http://www.w3.org/2000/svg" viewBox="0 0 504.9 128.41">
  <defs>
    <style>
      .cls-1 {
        fill: #0bbab9;
      }

      .cls-2 {
        fill: none;
        stroke: #4d5669;
        stroke-miterlimit: 10;
        stroke-width: 3px;
      }

      .cls-3 {
        fill: #4d5669;
      }

      .cls-4 {
        fill: #0dd2dc;
      }
    </style>
  </defs>
  <path class="cls-1" d="M108.99,24.99c2.43,5.72,5.65,11.61,10.53,14.8,7.66,5.01,14.12,11.3,19.45,18.51l-10.09.45c-2.23.1-3.16-.98-4.41-2.44-3.4-3.96-7.6-7.15-12.01-9.98s-7.95-6.68-10.64-11.84l-3.91,5.28-15.64,18.89-11.42-.21,26.53-32.63L116.09,2.72c2.09-2.58,6.55-3.45,9.41-2.05,2.07,1.01,3.15,3.39,4.43,5.11l10.08,13.48c4.14,1.91,6.8,5.15,9.44,8.84l22.95,30.22c-3.19.84-6.01.24-8.99.42-1.22.08-2.23-.47-2.94-1.4l-12.68-16.55-5.82-7.67c-1.83-2.41-3.74-4.56-6.52-5.95-1.56-1.15-3.24-2.15-4.42-3.77l-9.47-12.99-12.57,14.58Z"/>
  <g>
    <path class="cls-3" d="M0,92.06v-.12c0-11.94,9-21.72,21.9-21.72,7.92,0,12.66,2.64,16.56,6.48l-5.88,6.78c-3.24-2.94-6.54-4.74-10.74-4.74-7.08,0-12.18,5.88-12.18,13.08v.12c0,7.2,4.98,13.2,12.18,13.2,4.8,0,7.74-1.92,11.04-4.92l5.88,5.94c-4.32,4.62-9.12,7.5-17.22,7.5-12.36,0-21.54-9.54-21.54-21.6Z"/>
    <path class="cls-3" d="M45.18,80.78h9.12v6.48c1.86-4.44,4.86-7.32,10.26-7.08v9.54h-.48c-6.06,0-9.78,3.66-9.78,11.34v11.88h-9.12v-32.16Z"/>
    <path class="cls-3" d="M66.84,103.7v-.12c0-7.02,5.34-10.26,12.96-10.26,3.24,0,5.58.54,7.86,1.32v-.54c0-3.78-2.34-5.88-6.9-5.88-3.48,0-5.94.66-8.88,1.74l-2.28-6.96c3.54-1.56,7.02-2.58,12.48-2.58,4.98,0,8.58,1.32,10.86,3.6,2.4,2.4,3.48,5.94,3.48,10.26v18.66h-8.82v-3.48c-2.22,2.46-5.28,4.08-9.72,4.08-6.06,0-11.04-3.48-11.04-9.84ZM87.78,101.6v-1.62c-1.56-.72-3.6-1.2-5.82-1.2-3.9,0-6.3,1.56-6.3,4.44v.12c0,2.46,2.04,3.9,4.98,3.9,4.26,0,7.14-2.34,7.14-5.64Z"/>
    <path class="cls-3" d="M104.46,119.3l3.12-6.84c3.3,1.86,6.6,2.94,10.86,2.94,6.24,0,9.18-3,9.18-8.76v-1.56c-2.7,3.24-5.64,5.22-10.5,5.22-7.5,0-14.28-5.46-14.28-15v-.12c0-9.6,6.9-15,14.28-15,4.98,0,7.92,2.1,10.38,4.8v-4.2h9.12v24.9c0,5.76-1.38,9.96-4.08,12.66-3,3-7.62,4.32-13.86,4.32-5.22,0-10.14-1.2-14.22-3.36ZM127.62,95.3v-.12c0-4.38-3.42-7.44-7.86-7.44s-7.8,3.06-7.8,7.44v.12c0,4.44,3.36,7.44,7.8,7.44s7.86-3.06,7.86-7.44Z"/>
    <path class="cls-3" d="M144.78,69.14h9.12v16.2c2.1-2.7,4.8-5.16,9.42-5.16,6.9,0,10.92,4.56,10.92,11.94v20.82h-9.12v-17.94c0-4.32-2.04-6.54-5.52-6.54s-5.7,2.22-5.7,6.54v17.94h-9.12v-43.8Z"/>
    <path class="cls-3" d="M182.34,69.14h9.6v8.1h-9.6v-8.1ZM182.58,80.78h9.12v32.16h-9.12v-32.16Z"/>
    <path class="cls-3" d="M200.7,69.14h9.12v43.8h-9.12v-43.8Z"/>
    <path class="cls-3" d="M218.82,69.14h9.12v43.8h-9.12v-43.8Z"/>
  </g>
  <path class="cls-3" d="M232.14,71.45h-1.46v-1.7h4.91v1.7h-1.44v5.41h-2.02v-5.41ZM236.53,69.76h2.54l1.39,4.43h.03l1.38-4.43h2.55v7.11h-1.87l.03-4.82h-.03l-1.39,4.82h-1.34l-1.44-4.82-.03.03.06,4.79h-1.87v-7.11Z"/>
  <g>
    <path class="cls-4" d="M291.78,71.53l18.18,42.48h-6.72l-4.26-10.5h-20.22l-4.2,10.5h-6.72l18.72-42.48h5.22ZM280.8,98.47h16.08l-7.92-19.5h-.12l-8.04,19.5Z"/>
    <path class="cls-4" d="M342.6,68.65v45.36h-5.4v-4.08h-.12c-2.1,3.06-5.94,4.8-9.9,4.8-8.4,0-14.46-6.12-14.46-14.94s6.06-14.94,14.46-14.94c3.9,0,7.86,1.74,9.9,4.8h.12v-21h5.4ZM327.84,109.69c5.64,0,9.36-4.02,9.36-9.9s-3.84-9.9-9.42-9.9-9.3,3.96-9.3,9.9,3.78,9.9,9.36,9.9Z"/>
    <path class="cls-4" d="M353.58,85.57l8.52,21.78,8.16-21.78h5.76l-11.16,28.44h-5.94l-11.58-28.44h6.24Z"/>
    <path class="cls-4" d="M387.84,75.37c0,2.22-1.86,3.96-3.96,3.96-2.22,0-3.96-1.74-3.96-3.96s1.86-3.96,3.96-3.96,3.96,1.8,3.96,3.96ZM386.58,85.57v28.44h-5.4v-28.44h5.4Z"/>
    <path class="cls-4" d="M414.48,89.53l-4.2,3.18c-1.32-1.56-3.12-2.82-5.82-2.82s-4.74,1.32-4.74,3.18c0,2.34,2.28,3.42,5.58,4.08,6.78,1.32,9.96,3.48,9.96,8.64,0,6.24-5.64,8.94-11.58,8.94-5.22,0-8.46-1.62-10.92-5.04l4.08-3.36c2.46,2.52,4.56,3.36,6.9,3.36,3,0,5.76-1.26,5.76-3.6,0-2.16-1.98-3.3-5.4-4.08-6.66-1.38-10.14-3.24-10.14-8.4,0-5.88,5.4-8.76,10.8-8.76,4.32,0,7.92,1.68,9.72,4.68Z"/>
    <path class="cls-4" d="M450.66,99.79c0,8.28-6.66,14.94-15.12,14.94s-15.12-6.48-15.12-14.94,6.66-14.94,15.12-14.94,15.12,6.24,15.12,14.94ZM435.54,109.69c5.64,0,9.36-4.02,9.36-9.9s-3.84-9.9-9.42-9.9-9.3,4.08-9.3,9.9,3.78,9.9,9.36,9.9Z"/>
    <path class="cls-4" d="M473.88,85.21l-.24,5.82c-.9-.24-1.74-.42-2.7-.42-5.34,0-8.1,3.12-8.1,8.88v14.52h-5.4v-28.44h5.4v4.38h.12c1.44-3.06,4.98-5.1,8.52-5.1.9,0,1.8.12,2.4.36Z"/>
    <path class="cls-4" d="M482.46,85.57l8.46,22.2h.12l8.04-22.2h5.82l-13.44,34.44c-1.98,5.16-3.9,8.4-9.78,8.4-1.68,0-3.3-.18-4.8-.78l.66-4.86c1.08.36,2.16.6,3.24.6,3.36,0,4.44-1.74,5.58-4.74l1.68-4.44-11.82-28.62h6.24Z"/>
  </g>
  <line class="cls-2" x1="254.69" y1="67.87" x2="254.69" y2="115.96"/>
</svg>